<?xml version="1.0" encoding="utf-8"?>
<!-- Generator: Adobe Illustrator 17.0.2, SVG Export Plug-In . SVG Version: 6.00 Build 0)  -->
<!DOCTYPE svg PUBLIC "-//W3C//DTD SVG 1.1//EN" "http://www.w3.org/Graphics/SVG/1.1/DTD/svg11.dtd">
<svg version="1.1" id="レイヤー_1" xmlns="http://www.w3.org/2000/svg" xmlns:xlink="http://www.w3.org/1999/xlink" x="0px"
	 y="0px" width="830px" height="233px" viewBox="0 0 830 233" enable-background="new 0 0 830 233" xml:space="preserve">
<g>
	<rect x="15" y="14" fill="none" stroke="#000000" stroke-miterlimit="10" width="164" height="164"/>
	<line fill="none" stroke="#000000" stroke-miterlimit="10" x1="15" y1="96" x2="179" y2="96"/>
	<line fill="none" stroke="#000000" stroke-miterlimit="10" x1="97" y1="14" x2="97" y2="178"/>
</g>
<g>
	<rect x="210.5" y="14" fill="none" stroke="#000000" stroke-miterlimit="10" width="165" height="165"/>
	<line fill="none" stroke="#000000" stroke-miterlimit="10" x1="210.5" y1="137.75" x2="375.5" y2="137.75"/>
	<line fill="none" stroke="#000000" stroke-miterlimit="10" x1="210.5" y1="96.5" x2="375.5" y2="96.5"/>
	<line fill="none" stroke="#000000" stroke-miterlimit="10" x1="210.5" y1="55.25" x2="375.5" y2="55.25"/>
	<line fill="none" stroke="#000000" stroke-miterlimit="10" x1="334.25" y1="14" x2="334.25" y2="179"/>
	<line fill="none" stroke="#000000" stroke-miterlimit="10" x1="293" y1="14" x2="293" y2="179"/>
	<line fill="none" stroke="#000000" stroke-miterlimit="10" x1="251.75" y1="14" x2="251.75" y2="179"/>
</g>
<text transform="matrix(1 0 0 1 219.5 46)" font-family="'TimesNewRomanPSMT'" font-size="36">1</text>
<text transform="matrix(1 0 0 1 219.5 87)" font-family="'TimesNewRomanPSMT'" font-size="36">1</text>
<text transform="matrix(1 0 0 1 263.5 46)" font-family="'TimesNewRomanPSMT'" font-size="36">1</text>
<text transform="matrix(1 0 0 1 263.5 87)" font-family="'TimesNewRomanPSMT'" font-size="36">0</text>
<text transform="matrix(1 0 0 1 303.25 46)" font-family="'TimesNewRomanPSMT'" font-size="36">1</text>
<text transform="matrix(1 0 0 1 303.25 87)" font-family="'TimesNewRomanPSMT'" font-size="36">1</text>
<text transform="matrix(1 0 0 1 347.25 46)" font-family="'TimesNewRomanPSMT'" font-size="36">1</text>
<text transform="matrix(1 0 0 1 347.25 87)" font-family="'TimesNewRomanPSMT'" font-size="36">0</text>
<text transform="matrix(1 0 0 1 220.75 128.5)" font-family="'TimesNewRomanPSMT'" font-size="36">1</text>
<text transform="matrix(1 0 0 1 220.75 169.5)" font-family="'TimesNewRomanPSMT'" font-size="36">1</text>
<text transform="matrix(1 0 0 1 264.75 128.5)" font-family="'TimesNewRomanPSMT'" font-size="36">1</text>
<text transform="matrix(1 0 0 1 264.75 169.5)" font-family="'TimesNewRomanPSMT'" font-size="36">0</text>
<text transform="matrix(1 0 0 1 303.25 128.5)" font-family="'TimesNewRomanPSMT'" font-size="36">0</text>
<text transform="matrix(1 0 0 1 303.25 169.5)" font-family="'TimesNewRomanPSMT'" font-size="36">0</text>
<text transform="matrix(1 0 0 1 347.25 128.5)" font-family="'TimesNewRomanPSMT'" font-size="36">0</text>
<text transform="matrix(1 0 0 1 347.25 169.5)" font-family="'TimesNewRomanPSMT'" font-size="36">0</text>
<text transform="matrix(1 0 0 1 48.5 68)" font-family="'TimesNewRomanPSMT'" font-size="36">1</text>
<text transform="matrix(1 0 0 1 48.5 149)" font-family="'TimesNewRomanPSMT'" font-size="36">1</text>
<text transform="matrix(1 0 0 1 127.5 68)" font-family="'TimesNewRomanPSMT'" font-size="36">1</text>
<text transform="matrix(1 0 0 1 127.5 149)" font-family="'TimesNewRomanPSMT'" font-size="36">0</text>
<text transform="matrix(1 0 0 1 80.0049 213)" font-family="'TimesNewRomanPS-ItalicMT'" font-size="36">B</text>
<text transform="matrix(1 0 0 1 274.7539 213)" font-family="'TimesNewRomanPS-ItalicMT'" font-size="36">G</text>
<text transform="matrix(0.583 0 0 0.583 300.752 224.9883)" font-family="'TimesNewRomanPSMT'" font-size="36">2</text>
<g>
	<rect x="406.5" y="14" fill="none" stroke="#000000" stroke-width="0.5" stroke-miterlimit="10" width="82.5" height="82.5"/>
	<line fill="none" stroke="#000000" stroke-width="0.5" stroke-miterlimit="10" x1="406.5" y1="75.875" x2="489" y2="75.875"/>
	<line fill="none" stroke="#000000" stroke-width="0.5" stroke-miterlimit="10" x1="406.5" y1="55.25" x2="489" y2="55.25"/>
	<line fill="none" stroke="#000000" stroke-width="0.5" stroke-miterlimit="10" x1="406.5" y1="34.625" x2="489" y2="34.625"/>
	<line fill="none" stroke="#000000" stroke-width="0.5" stroke-miterlimit="10" x1="468.375" y1="14" x2="468.375" y2="96.5"/>
	<line fill="none" stroke="#000000" stroke-width="0.5" stroke-miterlimit="10" x1="447.75" y1="14" x2="447.75" y2="96.5"/>
	<line fill="none" stroke="#000000" stroke-width="0.5" stroke-miterlimit="10" x1="427.125" y1="14" x2="427.125" y2="96.5"/>
</g>
<text transform="matrix(1 0 0 1 411 30)" font-family="'TimesNewRomanPSMT'" font-size="18">1</text>
<text transform="matrix(1 0 0 1 411 50.5)" font-family="'TimesNewRomanPSMT'" font-size="18">1</text>
<text transform="matrix(1 0 0 1 433 30)" font-family="'TimesNewRomanPSMT'" font-size="18">1</text>
<text transform="matrix(1 0 0 1 433 50.5)" font-family="'TimesNewRomanPSMT'" font-size="18">0</text>
<text transform="matrix(1 0 0 1 452.875 30)" font-family="'TimesNewRomanPSMT'" font-size="18">1</text>
<text transform="matrix(1 0 0 1 452.875 50.5)" font-family="'TimesNewRomanPSMT'" font-size="18">1</text>
<text transform="matrix(1 0 0 1 474.875 30)" font-family="'TimesNewRomanPSMT'" font-size="18">1</text>
<text transform="matrix(1 0 0 1 474.875 50.5)" font-family="'TimesNewRomanPSMT'" font-size="18">0</text>
<text transform="matrix(1 0 0 1 411.625 71.25)" font-family="'TimesNewRomanPSMT'" font-size="18">1</text>
<text transform="matrix(1 0 0 1 411.625 91.75)" font-family="'TimesNewRomanPSMT'" font-size="18">1</text>
<text transform="matrix(1 0 0 1 433.625 71.25)" font-family="'TimesNewRomanPSMT'" font-size="18">1</text>
<text transform="matrix(1 0 0 1 433.625 91.75)" font-family="'TimesNewRomanPSMT'" font-size="18">0</text>
<text transform="matrix(1 0 0 1 452.875 71.25)" font-family="'TimesNewRomanPSMT'" font-size="18">0</text>
<text transform="matrix(1 0 0 1 452.875 91.75)" font-family="'TimesNewRomanPSMT'" font-size="18">0</text>
<text transform="matrix(1 0 0 1 474.875 71.25)" font-family="'TimesNewRomanPSMT'" font-size="18">0</text>
<text transform="matrix(1 0 0 1 474.875 91.75)" font-family="'TimesNewRomanPSMT'" font-size="18">0</text>
<g>
	<rect x="489" y="14" fill="none" stroke="#000000" stroke-width="0.5" stroke-miterlimit="10" width="82.5" height="82.5"/>
	<line fill="none" stroke="#000000" stroke-width="0.5" stroke-miterlimit="10" x1="489" y1="75.875" x2="571.5" y2="75.875"/>
	<line fill="none" stroke="#000000" stroke-width="0.5" stroke-miterlimit="10" x1="489" y1="55.25" x2="571.5" y2="55.25"/>
	<line fill="none" stroke="#000000" stroke-width="0.5" stroke-miterlimit="10" x1="489" y1="34.625" x2="571.5" y2="34.625"/>
	<line fill="none" stroke="#000000" stroke-width="0.5" stroke-miterlimit="10" x1="550.875" y1="14" x2="550.875" y2="96.5"/>
	<line fill="none" stroke="#000000" stroke-width="0.5" stroke-miterlimit="10" x1="530.25" y1="14" x2="530.25" y2="96.5"/>
	<line fill="none" stroke="#000000" stroke-width="0.5" stroke-miterlimit="10" x1="509.625" y1="14" x2="509.625" y2="96.5"/>
</g>
<text transform="matrix(1 0 0 1 493.5 30)" font-family="'TimesNewRomanPSMT'" font-size="18">1</text>
<text transform="matrix(1 0 0 1 493.5 50.5)" font-family="'TimesNewRomanPSMT'" font-size="18">1</text>
<text transform="matrix(1 0 0 1 515.5 30)" font-family="'TimesNewRomanPSMT'" font-size="18">1</text>
<text transform="matrix(1 0 0 1 515.5 50.5)" font-family="'TimesNewRomanPSMT'" font-size="18">0</text>
<text transform="matrix(1 0 0 1 535.375 30)" font-family="'TimesNewRomanPSMT'" font-size="18">1</text>
<text transform="matrix(1 0 0 1 535.375 50.5)" font-family="'TimesNewRomanPSMT'" font-size="18">1</text>
<text transform="matrix(1 0 0 1 557.375 30)" font-family="'TimesNewRomanPSMT'" font-size="18">1</text>
<text transform="matrix(1 0 0 1 557.375 50.5)" font-family="'TimesNewRomanPSMT'" font-size="18">0</text>
<text transform="matrix(1 0 0 1 494.125 71.25)" font-family="'TimesNewRomanPSMT'" font-size="18">1</text>
<text transform="matrix(1 0 0 1 494.125 91.75)" font-family="'TimesNewRomanPSMT'" font-size="18">1</text>
<text transform="matrix(1 0 0 1 516.125 71.25)" font-family="'TimesNewRomanPSMT'" font-size="18">1</text>
<text transform="matrix(1 0 0 1 516.125 91.75)" font-family="'TimesNewRomanPSMT'" font-size="18">0</text>
<text transform="matrix(1 0 0 1 535.375 71.25)" font-family="'TimesNewRomanPSMT'" font-size="18">0</text>
<text transform="matrix(1 0 0 1 535.375 91.75)" font-family="'TimesNewRomanPSMT'" font-size="18">0</text>
<text transform="matrix(1 0 0 1 557.375 71.25)" font-family="'TimesNewRomanPSMT'" font-size="18">0</text>
<text transform="matrix(1 0 0 1 557.375 91.75)" font-family="'TimesNewRomanPSMT'" font-size="18">0</text>
<g>
	<rect x="406.5" y="96.5" fill="none" stroke="#000000" stroke-width="0.5" stroke-miterlimit="10" width="82.5" height="82.5"/>
	<line fill="none" stroke="#000000" stroke-width="0.5" stroke-miterlimit="10" x1="406.5" y1="158.375" x2="489" y2="158.375"/>
	<line fill="none" stroke="#000000" stroke-width="0.5" stroke-miterlimit="10" x1="406.5" y1="137.75" x2="489" y2="137.75"/>
	<line fill="none" stroke="#000000" stroke-width="0.5" stroke-miterlimit="10" x1="406.5" y1="117.125" x2="489" y2="117.125"/>
	<line fill="none" stroke="#000000" stroke-width="0.5" stroke-miterlimit="10" x1="468.375" y1="96.5" x2="468.375" y2="179"/>
	<line fill="none" stroke="#000000" stroke-width="0.5" stroke-miterlimit="10" x1="447.75" y1="96.5" x2="447.75" y2="179"/>
	<line fill="none" stroke="#000000" stroke-width="0.5" stroke-miterlimit="10" x1="427.125" y1="96.5" x2="427.125" y2="179"/>
</g>
<text transform="matrix(1 0 0 1 411 112.5)" font-family="'TimesNewRomanPSMT'" font-size="18">1</text>
<text transform="matrix(1 0 0 1 411 133)" font-family="'TimesNewRomanPSMT'" font-size="18">1</text>
<text transform="matrix(1 0 0 1 433 112.5)" font-family="'TimesNewRomanPSMT'" font-size="18">1</text>
<text transform="matrix(1 0 0 1 433 133)" font-family="'TimesNewRomanPSMT'" font-size="18">0</text>
<text transform="matrix(1 0 0 1 452.875 112.5)" font-family="'TimesNewRomanPSMT'" font-size="18">1</text>
<text transform="matrix(1 0 0 1 452.875 133)" font-family="'TimesNewRomanPSMT'" font-size="18">1</text>
<text transform="matrix(1 0 0 1 474.875 112.5)" font-family="'TimesNewRomanPSMT'" font-size="18">1</text>
<text transform="matrix(1 0 0 1 474.875 133)" font-family="'TimesNewRomanPSMT'" font-size="18">0</text>
<text transform="matrix(1 0 0 1 411.625 153.75)" font-family="'TimesNewRomanPSMT'" font-size="18">1</text>
<text transform="matrix(1 0 0 1 411.625 174.25)" font-family="'TimesNewRomanPSMT'" font-size="18">1</text>
<text transform="matrix(1 0 0 1 433.625 153.75)" font-family="'TimesNewRomanPSMT'" font-size="18">1</text>
<text transform="matrix(1 0 0 1 433.625 174.25)" font-family="'TimesNewRomanPSMT'" font-size="18">0</text>
<text transform="matrix(1 0 0 1 452.875 153.75)" font-family="'TimesNewRomanPSMT'" font-size="18">0</text>
<text transform="matrix(1 0 0 1 452.875 174.25)" font-family="'TimesNewRomanPSMT'" font-size="18">0</text>
<text transform="matrix(1 0 0 1 474.875 153.75)" font-family="'TimesNewRomanPSMT'" font-size="18">0</text>
<text transform="matrix(1 0 0 1 474.875 174.25)" font-family="'TimesNewRomanPSMT'" font-size="18">0</text>
<g>
	<rect x="489" y="96.5" fill="none" stroke="#000000" stroke-width="0.5" stroke-miterlimit="10" width="82.5" height="82.5"/>
	<line fill="none" stroke="#000000" stroke-width="0.5" stroke-miterlimit="10" x1="489" y1="158.375" x2="571.5" y2="158.375"/>
	<line fill="none" stroke="#000000" stroke-width="0.5" stroke-miterlimit="10" x1="489" y1="137.75" x2="571.5" y2="137.75"/>
	<line fill="none" stroke="#000000" stroke-width="0.5" stroke-miterlimit="10" x1="489" y1="117.125" x2="571.5" y2="117.125"/>
	<line fill="none" stroke="#000000" stroke-width="0.5" stroke-miterlimit="10" x1="550.875" y1="96.5" x2="550.875" y2="179"/>
	<line fill="none" stroke="#000000" stroke-width="0.5" stroke-miterlimit="10" x1="530.25" y1="96.5" x2="530.25" y2="179"/>
	<line fill="none" stroke="#000000" stroke-width="0.5" stroke-miterlimit="10" x1="509.625" y1="96.5" x2="509.625" y2="179"/>
</g>
<text transform="matrix(1 0 0 1 493.5 112.5)" font-family="'TimesNewRomanPSMT'" font-size="18">0</text>
<text transform="matrix(1 0 0 1 493.5 133)" font-family="'TimesNewRomanPSMT'" font-size="18">0</text>
<text transform="matrix(1 0 0 1 515.5 112.5)" font-family="'TimesNewRomanPSMT'" font-size="18">0</text>
<text transform="matrix(1 0 0 1 515.5 133)" font-family="'TimesNewRomanPSMT'" font-size="18">0</text>
<text transform="matrix(1 0 0 1 535.375 112.5)" font-family="'TimesNewRomanPSMT'" font-size="18">0</text>
<text transform="matrix(1 0 0 1 535.375 133)" font-family="'TimesNewRomanPSMT'" font-size="18">0</text>
<text transform="matrix(1 0 0 1 557.375 112.5)" font-family="'TimesNewRomanPSMT'" font-size="18">0</text>
<text transform="matrix(1 0 0 1 557.375 133)" font-family="'TimesNewRomanPSMT'" font-size="18">0</text>
<text transform="matrix(1 0 0 1 494.125 153.75)" font-family="'TimesNewRomanPSMT'" font-size="18">0</text>
<text transform="matrix(1 0 0 1 494.125 174.25)" font-family="'TimesNewRomanPSMT'" font-size="18">0</text>
<text transform="matrix(1 0 0 1 516.125 153.75)" font-family="'TimesNewRomanPSMT'" font-size="18">0</text>
<text transform="matrix(1 0 0 1 516.125 174.25)" font-family="'TimesNewRomanPSMT'" font-size="18">0</text>
<text transform="matrix(1 0 0 1 535.375 153.75)" font-family="'TimesNewRomanPSMT'" font-size="18">0</text>
<text transform="matrix(1 0 0 1 535.375 174.25)" font-family="'TimesNewRomanPSMT'" font-size="18">0</text>
<text transform="matrix(1 0 0 1 557.375 153.75)" font-family="'TimesNewRomanPSMT'" font-size="18">0</text>
<text transform="matrix(1 0 0 1 557.375 174.25)" font-family="'TimesNewRomanPSMT'" font-size="18">0</text>
<text transform="matrix(1 0 0 1 470.7539 213)" font-family="'TimesNewRomanPS-ItalicMT'" font-size="36">G</text>
<text transform="matrix(0.583 0 0 0.583 496.752 224.9883)" font-family="'TimesNewRomanPSMT'" font-size="36">3</text>
<g>
	<rect x="613.5" y="14" fill="none" stroke="#000000" stroke-width="0.5" stroke-miterlimit="10" width="82.5" height="82.5"/>
	<line fill="none" stroke="#000000" stroke-width="0.5" stroke-miterlimit="10" x1="613.5" y1="75.875" x2="696" y2="75.875"/>
	<line fill="none" stroke="#000000" stroke-width="0.5" stroke-miterlimit="10" x1="613.5" y1="55.25" x2="696" y2="55.25"/>
	<line fill="none" stroke="#000000" stroke-width="0.5" stroke-miterlimit="10" x1="613.5" y1="34.625" x2="696" y2="34.625"/>
	<line fill="none" stroke="#000000" stroke-width="0.5" stroke-miterlimit="10" x1="675.375" y1="14" x2="675.375" y2="96.5"/>
	<line fill="none" stroke="#000000" stroke-width="0.5" stroke-miterlimit="10" x1="654.75" y1="14" x2="654.75" y2="96.5"/>
	<line fill="none" stroke="#000000" stroke-width="0.5" stroke-miterlimit="10" x1="634.125" y1="14" x2="634.125" y2="96.5"/>
</g>
<g>
	<rect x="696" y="14" fill="none" stroke="#000000" stroke-width="0.5" stroke-miterlimit="10" width="82.5" height="82.5"/>
	<line fill="none" stroke="#000000" stroke-width="0.5" stroke-miterlimit="10" x1="696" y1="75.875" x2="778.5" y2="75.875"/>
	<line fill="none" stroke="#000000" stroke-width="0.5" stroke-miterlimit="10" x1="696" y1="55.25" x2="778.5" y2="55.25"/>
	<line fill="none" stroke="#000000" stroke-width="0.5" stroke-miterlimit="10" x1="696" y1="34.625" x2="778.5" y2="34.625"/>
	<line fill="none" stroke="#000000" stroke-width="0.5" stroke-miterlimit="10" x1="757.875" y1="14" x2="757.875" y2="96.5"/>
	<line fill="none" stroke="#000000" stroke-width="0.5" stroke-miterlimit="10" x1="737.25" y1="14" x2="737.25" y2="96.5"/>
	<line fill="none" stroke="#000000" stroke-width="0.5" stroke-miterlimit="10" x1="716.625" y1="14" x2="716.625" y2="96.5"/>
</g>
<g>
	<rect x="613.5" y="96.5" fill="none" stroke="#000000" stroke-width="0.5" stroke-miterlimit="10" width="82.5" height="82.5"/>
	<line fill="none" stroke="#000000" stroke-width="0.5" stroke-miterlimit="10" x1="613.5" y1="158.375" x2="696" y2="158.375"/>
	<line fill="none" stroke="#000000" stroke-width="0.5" stroke-miterlimit="10" x1="613.5" y1="137.75" x2="696" y2="137.75"/>
	<line fill="none" stroke="#000000" stroke-width="0.5" stroke-miterlimit="10" x1="613.5" y1="117.125" x2="696" y2="117.125"/>
	<line fill="none" stroke="#000000" stroke-width="0.5" stroke-miterlimit="10" x1="675.375" y1="96.5" x2="675.375" y2="179"/>
	<line fill="none" stroke="#000000" stroke-width="0.5" stroke-miterlimit="10" x1="654.75" y1="96.5" x2="654.75" y2="179"/>
	<line fill="none" stroke="#000000" stroke-width="0.5" stroke-miterlimit="10" x1="634.125" y1="96.5" x2="634.125" y2="179"/>
</g>
<g>
	<rect x="696" y="96.5" fill="none" stroke="#000000" stroke-width="0.5" stroke-miterlimit="10" width="82.5" height="82.5"/>
	<line fill="none" stroke="#000000" stroke-width="0.5" stroke-miterlimit="10" x1="696" y1="158.375" x2="778.5" y2="158.375"/>
	<line fill="none" stroke="#000000" stroke-width="0.5" stroke-miterlimit="10" x1="696" y1="137.75" x2="778.5" y2="137.75"/>
	<line fill="none" stroke="#000000" stroke-width="0.5" stroke-miterlimit="10" x1="696" y1="117.125" x2="778.5" y2="117.125"/>
	<line fill="none" stroke="#000000" stroke-width="0.5" stroke-miterlimit="10" x1="757.875" y1="96.5" x2="757.875" y2="179"/>
	<line fill="none" stroke="#000000" stroke-width="0.5" stroke-miterlimit="10" x1="737.25" y1="96.5" x2="737.25" y2="179"/>
	<line fill="none" stroke="#000000" stroke-width="0.5" stroke-miterlimit="10" x1="716.625" y1="96.5" x2="716.625" y2="179"/>
</g>
<text transform="matrix(1 0 0 1 677.7539 213)" font-family="'TimesNewRomanPS-ItalicMT'" font-size="36">G</text>
<text transform="matrix(0.583 0 0 0.583 703.752 224.9883)" font-family="'TimesNewRomanPSMT'" font-size="36">3</text>
<rect x="613.5" y="14" stroke="#000000" stroke-miterlimit="10" width="20.625" height="20.625"/>
<rect x="613.5" y="35.688" stroke="#000000" stroke-miterlimit="10" width="20.625" height="20.625"/>
<rect x="613.5" y="55.25" stroke="#000000" stroke-miterlimit="10" width="20.625" height="20.625"/>
<rect x="634.125" y="55.25" stroke="#000000" stroke-miterlimit="10" width="20.625" height="20.625"/>
<rect x="613.5" y="76.688" stroke="#000000" stroke-miterlimit="10" width="20.625" height="20.625"/>
<rect x="654.75" y="35.688" stroke="#000000" stroke-miterlimit="10" width="20.625" height="20.625"/>
<rect x="634.125" y="14" stroke="#000000" stroke-miterlimit="10" width="20.625" height="20.625"/>
<rect x="654.75" y="14" stroke="#000000" stroke-miterlimit="10" width="20.625" height="20.625"/>
<rect x="675.375" y="14" stroke="#000000" stroke-miterlimit="10" width="20.625" height="20.625"/>
<rect x="696" y="14" stroke="#000000" stroke-miterlimit="10" width="20.625" height="20.625"/>
<rect x="696" y="35.688" stroke="#000000" stroke-miterlimit="10" width="20.625" height="20.625"/>
<rect x="696" y="55.25" stroke="#000000" stroke-miterlimit="10" width="20.625" height="20.625"/>
<rect x="716.625" y="55.25" stroke="#000000" stroke-miterlimit="10" width="20.625" height="20.625"/>
<rect x="696" y="76.688" stroke="#000000" stroke-miterlimit="10" width="20.625" height="20.625"/>
<rect x="737.25" y="35.688" stroke="#000000" stroke-miterlimit="10" width="20.625" height="20.625"/>
<rect x="716.625" y="14" stroke="#000000" stroke-miterlimit="10" width="20.625" height="20.625"/>
<rect x="737.25" y="14" stroke="#000000" stroke-miterlimit="10" width="20.625" height="20.625"/>
<rect x="757.875" y="14" stroke="#000000" stroke-miterlimit="10" width="20.625" height="20.625"/>
<rect x="613.094" y="96.906" stroke="#000000" stroke-miterlimit="10" width="20.625" height="20.625"/>
<rect x="613.094" y="118.594" stroke="#000000" stroke-miterlimit="10" width="20.625" height="20.625"/>
<rect x="613.094" y="138.156" stroke="#000000" stroke-miterlimit="10" width="20.625" height="20.625"/>
<rect x="633.719" y="138.156" stroke="#000000" stroke-miterlimit="10" width="20.625" height="20.625"/>
<rect x="613.094" y="159.594" stroke="#000000" stroke-miterlimit="10" width="20.625" height="20.625"/>
<rect x="654.344" y="118.594" stroke="#000000" stroke-miterlimit="10" width="20.625" height="20.625"/>
<rect x="633.719" y="96.906" stroke="#000000" stroke-miterlimit="10" width="20.625" height="20.625"/>
<rect x="654.344" y="96.906" stroke="#000000" stroke-miterlimit="10" width="20.625" height="20.625"/>
<rect x="674.969" y="96.906" stroke="#000000" stroke-miterlimit="10" width="20.625" height="20.625"/>
</svg>
