<?xml version="1.0" encoding="utf-8"?>
<!-- Generator: Adobe Illustrator 17.0.2, SVG Export Plug-In . SVG Version: 6.00 Build 0)  -->
<!DOCTYPE svg PUBLIC "-//W3C//DTD SVG 1.1//EN" "http://www.w3.org/Graphics/SVG/1.1/DTD/svg11.dtd">
<svg version="1.1" id="レイヤー_1" xmlns="http://www.w3.org/2000/svg" xmlns:xlink="http://www.w3.org/1999/xlink" x="0px"
	 y="0px" width="830px" height="233px" viewBox="0 0 830 233" enable-background="new 0 0 830 233" xml:space="preserve">
<g>
	<rect x="444" y="14" fill="none" stroke="#000000" stroke-miterlimit="10" width="164" height="164"/>
	<line fill="none" stroke="#000000" stroke-miterlimit="10" x1="444" y1="96" x2="608" y2="96"/>
	<line fill="none" stroke="#000000" stroke-miterlimit="10" x1="526" y1="14" x2="526" y2="178"/>
</g>
<g>
	<rect x="15" y="14" fill="none" stroke="#000000" stroke-miterlimit="10" width="164" height="164"/>
	<line fill="none" stroke="#000000" stroke-miterlimit="10" x1="15" y1="96" x2="179" y2="96"/>
	<line fill="none" stroke="#000000" stroke-miterlimit="10" x1="97" y1="14" x2="97" y2="178"/>
</g>
<g>
	<rect x="640.5" y="14" fill="none" stroke="#000000" stroke-miterlimit="10" width="165" height="165"/>
	<line fill="none" stroke="#000000" stroke-miterlimit="10" x1="640.5" y1="137.75" x2="805.5" y2="137.75"/>
	<line fill="none" stroke="#000000" stroke-miterlimit="10" x1="640.5" y1="96.5" x2="805.5" y2="96.5"/>
	<line fill="none" stroke="#000000" stroke-miterlimit="10" x1="640.5" y1="55.25" x2="805.5" y2="55.25"/>
	<line fill="none" stroke="#000000" stroke-miterlimit="10" x1="764.25" y1="14" x2="764.25" y2="179"/>
	<line fill="none" stroke="#000000" stroke-miterlimit="10" x1="723" y1="14" x2="723" y2="179"/>
	<line fill="none" stroke="#000000" stroke-miterlimit="10" x1="681.75" y1="14" x2="681.75" y2="179"/>
</g>
<g>
	<rect x="245" y="13.5" fill="none" stroke="#000000" stroke-miterlimit="10" width="165" height="165"/>
</g>
<text transform="matrix(1 0 0 1 309.5 119)" font-family="'TimesNewRomanPSMT'" font-size="72">1</text>
<text transform="matrix(1 0 0 1 478.5 68)" font-family="'TimesNewRomanPSMT'" font-size="36">1</text>
<text transform="matrix(1 0 0 1 478.5 149)" font-family="'TimesNewRomanPSMT'" font-size="36">1</text>
<text transform="matrix(1 0 0 1 557.5 68)" font-family="'TimesNewRomanPSMT'" font-size="36">1</text>
<text transform="matrix(1 0 0 1 557.5 149)" font-family="'TimesNewRomanPSMT'" font-size="36">0</text>
<text transform="matrix(1 0 0 1 649.5 46)" font-family="'TimesNewRomanPSMT'" font-size="36">1</text>
<text transform="matrix(1 0 0 1 649.5 87)" font-family="'TimesNewRomanPSMT'" font-size="36">1</text>
<text transform="matrix(1 0 0 1 693.5 46)" font-family="'TimesNewRomanPSMT'" font-size="36">1</text>
<text transform="matrix(1 0 0 1 693.5 87)" font-family="'TimesNewRomanPSMT'" font-size="36">0</text>
<text transform="matrix(1 0 0 1 733.25 46)" font-family="'TimesNewRomanPSMT'" font-size="36">1</text>
<text transform="matrix(1 0 0 1 733.25 87)" font-family="'TimesNewRomanPSMT'" font-size="36">1</text>
<text transform="matrix(1 0 0 1 777.25 46)" font-family="'TimesNewRomanPSMT'" font-size="36">1</text>
<text transform="matrix(1 0 0 1 777.25 87)" font-family="'TimesNewRomanPSMT'" font-size="36">0</text>
<text transform="matrix(1 0 0 1 650.75 128.5)" font-family="'TimesNewRomanPSMT'" font-size="36">1</text>
<text transform="matrix(1 0 0 1 650.75 169.5)" font-family="'TimesNewRomanPSMT'" font-size="36">1</text>
<text transform="matrix(1 0 0 1 694.75 128.5)" font-family="'TimesNewRomanPSMT'" font-size="36">1</text>
<text transform="matrix(1 0 0 1 694.75 169.5)" font-family="'TimesNewRomanPSMT'" font-size="36">0</text>
<text transform="matrix(1 0 0 1 733.25 128.5)" font-family="'TimesNewRomanPSMT'" font-size="36">0</text>
<text transform="matrix(1 0 0 1 733.25 169.5)" font-family="'TimesNewRomanPSMT'" font-size="36">0</text>
<text transform="matrix(1 0 0 1 777.25 128.5)" font-family="'TimesNewRomanPSMT'" font-size="36">0</text>
<text transform="matrix(1 0 0 1 777.25 169.5)" font-family="'TimesNewRomanPSMT'" font-size="36">0</text>
<text transform="matrix(1 0 0 1 294.7539 213)" font-family="'TimesNewRomanPS-ItalicMT'" font-size="36">G</text>
<text transform="matrix(0.583 0 0 0.583 320.752 224.9883)" font-family="'TimesNewRomanPSMT'" font-size="36">0</text>
<text transform="matrix(1 0 0 1 502.7539 213)" font-family="'TimesNewRomanPS-ItalicMT'" font-size="36">G</text>
<text transform="matrix(0.583 0 0 0.583 528.752 224.9883)" font-family="'TimesNewRomanPSMT'" font-size="36">1</text>
<text transform="matrix(1 0 0 1 48.5 68)" font-family="'TimesNewRomanPSMT'" font-size="36">1</text>
<text transform="matrix(1 0 0 1 48.5 149)" font-family="'TimesNewRomanPSMT'" font-size="36">1</text>
<text transform="matrix(1 0 0 1 127.5 68)" font-family="'TimesNewRomanPSMT'" font-size="36">1</text>
<text transform="matrix(1 0 0 1 127.5 149)" font-family="'TimesNewRomanPSMT'" font-size="36">0</text>
<text transform="matrix(1 0 0 1 80.0049 213)" font-family="'TimesNewRomanPS-ItalicMT'" font-size="36">B</text>
<text transform="matrix(1 0 0 1 704.7539 213)" font-family="'TimesNewRomanPS-ItalicMT'" font-size="36">G</text>
<text transform="matrix(0.583 0 0 0.583 730.752 224.9883)" font-family="'TimesNewRomanPSMT'" font-size="36">2</text>
</svg>
