<?xml version="1.0" encoding="utf-8"?>
<!-- Generator: Adobe Illustrator 17.0.2, SVG Export Plug-In . SVG Version: 6.00 Build 0)  -->
<!DOCTYPE svg PUBLIC "-//W3C//DTD SVG 1.1//EN" "http://www.w3.org/Graphics/SVG/1.1/DTD/svg11.dtd">
<svg version="1.1" id="レイヤー_1" xmlns="http://www.w3.org/2000/svg" xmlns:xlink="http://www.w3.org/1999/xlink" x="0px"
	 y="0px" width="512px" height="512px" viewBox="0 0 512 512" enable-background="new 0 0 512 512" xml:space="preserve">
<g>
	<rect y="448" fill-rule="evenodd" clip-rule="evenodd" fill="#808080" width="64" height="64"/>
	<rect x="64" y="448" fill-rule="evenodd" clip-rule="evenodd" fill="#FFFFFF" width="64" height="64"/>
	<rect x="128" y="448" fill-rule="evenodd" clip-rule="evenodd" fill="#FFFFFF" width="64" height="64"/>
	<rect x="192" y="448" fill-rule="evenodd" clip-rule="evenodd" fill="#FFFFFF" width="64" height="64"/>
	<rect x="256" y="448" fill-rule="evenodd" clip-rule="evenodd" fill="#FFFFFF" width="64" height="64"/>
	<rect x="320" y="448" fill-rule="evenodd" clip-rule="evenodd" fill="#FFFFFF" width="64" height="64"/>
	<rect x="384" y="448" fill-rule="evenodd" clip-rule="evenodd" fill="#FFFFFF" width="64" height="64"/>
	<rect x="448" y="448" fill-rule="evenodd" clip-rule="evenodd" fill="#FFFFFF" width="64" height="64"/>
	<rect y="384" fill-rule="evenodd" clip-rule="evenodd" fill="#808080" width="64" height="64"/>
	<rect x="64" y="384" fill-rule="evenodd" clip-rule="evenodd" fill="#808080" width="64" height="64"/>
	<rect x="128" y="384" fill-rule="evenodd" clip-rule="evenodd" fill="#FFFFFF" width="64" height="64"/>
	<rect x="192" y="384" fill-rule="evenodd" clip-rule="evenodd" fill="#FFFFFF" width="64" height="64"/>
	<rect x="256" y="384" fill-rule="evenodd" clip-rule="evenodd" fill="#FFFFFF" width="64" height="64"/>
	<rect x="320" y="384" fill-rule="evenodd" clip-rule="evenodd" fill="#FFFFFF" width="64" height="64"/>
	<rect x="384" y="384" fill-rule="evenodd" clip-rule="evenodd" fill="#FFFFFF" width="64" height="64"/>
	<rect x="448" y="384" fill-rule="evenodd" clip-rule="evenodd" fill="#FFFFFF" width="64" height="64"/>
	<rect y="320" fill-rule="evenodd" clip-rule="evenodd" fill="#808080" width="64" height="64"/>
	<rect x="64" y="320" fill-rule="evenodd" clip-rule="evenodd" fill="#FFFFFF" width="64" height="64"/>
	<rect x="128" y="320" fill-rule="evenodd" clip-rule="evenodd" fill="#808080" width="64" height="64"/>
	<rect x="192" y="320" fill-rule="evenodd" clip-rule="evenodd" fill="#FFFFFF" width="64" height="64"/>
	<rect x="256" y="320" fill-rule="evenodd" clip-rule="evenodd" fill="#FFFFFF" width="64" height="64"/>
	<rect x="320" y="320" fill-rule="evenodd" clip-rule="evenodd" fill="#FFFFFF" width="64" height="64"/>
	<rect x="384" y="320" fill-rule="evenodd" clip-rule="evenodd" fill="#FFFFFF" width="64" height="64"/>
	<rect x="448" y="320" fill-rule="evenodd" clip-rule="evenodd" fill="#FFFFFF" width="64" height="64"/>
	<rect y="256" fill-rule="evenodd" clip-rule="evenodd" fill="#808080" width="64" height="64"/>
	<rect x="64" y="256" fill-rule="evenodd" clip-rule="evenodd" fill="#808080" width="64" height="64"/>
	<rect x="128" y="256" fill-rule="evenodd" clip-rule="evenodd" fill="#808080" width="64" height="64"/>
	<rect x="192" y="256" fill-rule="evenodd" clip-rule="evenodd" fill="#808080" width="64" height="64"/>
	<rect x="256" y="256" fill-rule="evenodd" clip-rule="evenodd" fill="#FFFFFF" width="64" height="64"/>
	<rect x="320" y="256" fill-rule="evenodd" clip-rule="evenodd" fill="#FFFFFF" width="64" height="64"/>
	<rect x="384" y="256" fill-rule="evenodd" clip-rule="evenodd" fill="#FFFFFF" width="64" height="64"/>
	<rect x="448" y="256" fill-rule="evenodd" clip-rule="evenodd" fill="#FFFFFF" width="64" height="64"/>
	<rect y="192" fill-rule="evenodd" clip-rule="evenodd" fill="#808080" width="64" height="64"/>
	<rect x="64" y="192" fill-rule="evenodd" clip-rule="evenodd" fill="#FFFFFF" width="64" height="64"/>
	<rect x="128" y="192" fill-rule="evenodd" clip-rule="evenodd" fill="#FFFFFF" width="64" height="64"/>
	<rect x="192" y="192" fill-rule="evenodd" clip-rule="evenodd" fill="#FFFFFF" width="64" height="64"/>
	<rect x="256" y="192" fill-rule="evenodd" clip-rule="evenodd" fill="#808080" width="64" height="64"/>
	<rect x="320" y="192" fill-rule="evenodd" clip-rule="evenodd" fill="#FFFFFF" width="64" height="64"/>
	<rect x="384" y="192" fill-rule="evenodd" clip-rule="evenodd" fill="#FFFFFF" width="64" height="64"/>
	<rect x="448" y="192" fill-rule="evenodd" clip-rule="evenodd" fill="#FFFFFF" width="64" height="64"/>
	<rect y="128" fill-rule="evenodd" clip-rule="evenodd" fill="#808080" width="64" height="64"/>
	<rect x="64" y="128" fill-rule="evenodd" clip-rule="evenodd" fill="#808080" width="64" height="64"/>
	<rect x="128" y="128" fill-rule="evenodd" clip-rule="evenodd" fill="#FFFFFF" width="64" height="64"/>
	<rect x="192" y="128" fill-rule="evenodd" clip-rule="evenodd" fill="#FFFFFF" width="64" height="64"/>
	<rect x="256" y="128" fill-rule="evenodd" clip-rule="evenodd" fill="#808080" width="64" height="64"/>
	<rect x="320" y="128" fill-rule="evenodd" clip-rule="evenodd" fill="#808080" width="64" height="64"/>
	<rect x="384" y="128" fill-rule="evenodd" clip-rule="evenodd" fill="#FFFFFF" width="64" height="64"/>
	<rect x="448" y="128" fill-rule="evenodd" clip-rule="evenodd" fill="#FFFFFF" width="64" height="64"/>
	<rect y="64" fill-rule="evenodd" clip-rule="evenodd" fill="#808080" width="64" height="64"/>
	<rect x="64" y="64" fill-rule="evenodd" clip-rule="evenodd" fill="#FFFFFF" width="64" height="64"/>
	<rect x="128" y="64" fill-rule="evenodd" clip-rule="evenodd" fill="#808080" width="64" height="64"/>
	<rect x="192" y="64" fill-rule="evenodd" clip-rule="evenodd" fill="#FFFFFF" width="64" height="64"/>
	<rect x="256" y="64" fill-rule="evenodd" clip-rule="evenodd" fill="#808080" width="64" height="64"/>
	<rect x="320" y="64" fill-rule="evenodd" clip-rule="evenodd" fill="#FFFFFF" width="64" height="64"/>
	<rect x="384" y="64" fill-rule="evenodd" clip-rule="evenodd" fill="#808080" width="64" height="64"/>
	<rect x="448" y="64" fill-rule="evenodd" clip-rule="evenodd" fill="#FFFFFF" width="64" height="64"/>
	<rect fill-rule="evenodd" clip-rule="evenodd" fill="#808080" width="64" height="64"/>
	<rect x="64" fill-rule="evenodd" clip-rule="evenodd" fill="#808080" width="64" height="64"/>
	<rect x="128" fill-rule="evenodd" clip-rule="evenodd" fill="#808080" width="64" height="64"/>
	<rect x="192" fill-rule="evenodd" clip-rule="evenodd" fill="#808080" width="64" height="64"/>
	<rect x="256" fill-rule="evenodd" clip-rule="evenodd" fill="#808080" width="64" height="64"/>
	<rect x="320" fill-rule="evenodd" clip-rule="evenodd" fill="#808080" width="64" height="64"/>
	<rect x="384" fill-rule="evenodd" clip-rule="evenodd" fill="#808080" width="64" height="64"/>
	<rect x="448" fill-rule="evenodd" clip-rule="evenodd" fill="#808080" width="64" height="64"/>
</g>
<g>
	<g>
		<line fill="none" stroke="#000000" stroke-width="4" stroke-miterlimit="10" x1="32" y1="32" x2="463.121" y2="32"/>
		<g>
			<polygon points="451.887,46.813 458.18,32 451.887,17.188 487,32 			"/>
		</g>
	</g>
</g>
<g>
	<g>
		<line fill="none" stroke="#000000" stroke-width="4" stroke-miterlimit="10" x1="32" y1="96" x2="463.121" y2="96"/>
		<g>
			<polygon points="451.887,110.813 458.18,96 451.887,81.188 487,96 			"/>
		</g>
	</g>
</g>
<g>
	<g>
		<line fill="none" stroke="#000000" stroke-width="4" stroke-miterlimit="10" x1="32" y1="160" x2="463.121" y2="160"/>
		<g>
			<polygon points="451.887,174.813 458.18,160 451.887,145.188 487,160 			"/>
		</g>
	</g>
</g>
<g>
	<g>
		<line fill="none" stroke="#000000" stroke-width="4" stroke-miterlimit="10" x1="32" y1="224" x2="463.121" y2="224"/>
		<g>
			<polygon points="451.887,238.813 458.18,224 451.887,209.188 487,224 			"/>
		</g>
	</g>
</g>
<g>
	<g>
		<line fill="none" stroke="#000000" stroke-width="4" stroke-miterlimit="10" x1="32" y1="288" x2="463.121" y2="288"/>
		<g>
			<polygon points="451.887,302.812 458.18,288 451.887,273.188 487,288 			"/>
		</g>
	</g>
</g>
<g>
	<g>
		<line fill="none" stroke="#000000" stroke-width="4" stroke-miterlimit="10" x1="32" y1="352" x2="463.121" y2="352"/>
		<g>
			<polygon points="451.887,366.812 458.18,352 451.887,337.188 487,352 			"/>
		</g>
	</g>
</g>
<g>
	<g>
		<line fill="none" stroke="#000000" stroke-width="4" stroke-miterlimit="10" x1="32" y1="416" x2="463.121" y2="416"/>
		<g>
			<polygon points="451.887,430.812 458.18,416 451.887,401.188 487,416 			"/>
		</g>
	</g>
</g>
<g>
	<g>
		<line fill="none" stroke="#000000" stroke-width="4" stroke-miterlimit="10" x1="32" y1="480" x2="463.121" y2="480"/>
		<g>
			<polygon points="451.887,494.812 458.18,480 451.887,465.188 487,480 			"/>
		</g>
	</g>
</g>
<g>
	<g>
		<line fill="none" stroke="#000000" stroke-width="4" stroke-miterlimit="10" x1="487" y1="32" x2="481.058" y2="32.836"/>
		
			<line fill="none" stroke="#000000" stroke-width="4" stroke-miterlimit="10" stroke-dasharray="12.094,12.094" x1="469.082" y1="34.52" x2="43.93" y2="94.322"/>
		<line fill="none" stroke="#000000" stroke-width="4" stroke-miterlimit="10" x1="37.942" y1="95.164" x2="32" y2="96"/>
	</g>
</g>
<g>
	<g>
		<line fill="none" stroke="#000000" stroke-width="4" stroke-miterlimit="10" x1="487" y1="96" x2="481.058" y2="96.836"/>
		
			<line fill="none" stroke="#000000" stroke-width="4" stroke-miterlimit="10" stroke-dasharray="12.094,12.094" x1="469.082" y1="98.52" x2="43.93" y2="158.322"/>
		<line fill="none" stroke="#000000" stroke-width="4" stroke-miterlimit="10" x1="37.942" y1="159.164" x2="32" y2="160"/>
	</g>
</g>
<g>
	<g>
		<line fill="none" stroke="#000000" stroke-width="4" stroke-miterlimit="10" x1="487" y1="160" x2="481.058" y2="160.836"/>
		
			<line fill="none" stroke="#000000" stroke-width="4" stroke-miterlimit="10" stroke-dasharray="12.094,12.094" x1="469.082" y1="162.52" x2="43.93" y2="222.322"/>
		<line fill="none" stroke="#000000" stroke-width="4" stroke-miterlimit="10" x1="37.942" y1="223.164" x2="32" y2="224"/>
	</g>
</g>
<g>
	<g>
		<line fill="none" stroke="#000000" stroke-width="4" stroke-miterlimit="10" x1="487" y1="224" x2="481.058" y2="224.836"/>
		
			<line fill="none" stroke="#000000" stroke-width="4" stroke-miterlimit="10" stroke-dasharray="12.094,12.094" x1="469.082" y1="226.52" x2="43.93" y2="286.322"/>
		<line fill="none" stroke="#000000" stroke-width="4" stroke-miterlimit="10" x1="37.942" y1="287.164" x2="32" y2="288"/>
	</g>
</g>
<g>
	<g>
		<line fill="none" stroke="#000000" stroke-width="4" stroke-miterlimit="10" x1="487" y1="288" x2="481.058" y2="288.836"/>
		
			<line fill="none" stroke="#000000" stroke-width="4" stroke-miterlimit="10" stroke-dasharray="12.094,12.094" x1="469.082" y1="290.52" x2="43.93" y2="350.322"/>
		<line fill="none" stroke="#000000" stroke-width="4" stroke-miterlimit="10" x1="37.942" y1="351.164" x2="32" y2="352"/>
	</g>
</g>
<g>
	<g>
		<line fill="none" stroke="#000000" stroke-width="4" stroke-miterlimit="10" x1="487" y1="352" x2="481.058" y2="352.836"/>
		
			<line fill="none" stroke="#000000" stroke-width="4" stroke-miterlimit="10" stroke-dasharray="12.094,12.094" x1="469.082" y1="354.52" x2="43.93" y2="414.322"/>
		<line fill="none" stroke="#000000" stroke-width="4" stroke-miterlimit="10" x1="37.942" y1="415.164" x2="32" y2="416"/>
	</g>
</g>
<g>
	<g>
		<line fill="none" stroke="#000000" stroke-width="4" stroke-miterlimit="10" x1="487" y1="416" x2="481.058" y2="416.836"/>
		
			<line fill="none" stroke="#000000" stroke-width="4" stroke-miterlimit="10" stroke-dasharray="12.094,12.094" x1="469.082" y1="418.52" x2="43.93" y2="478.322"/>
		<line fill="none" stroke="#000000" stroke-width="4" stroke-miterlimit="10" x1="37.942" y1="479.164" x2="32" y2="480"/>
	</g>
</g>
</svg>
